<svg xmlns="http://www.w3.org/2000/svg" viewBox="0 0 80 80"><defs><linearGradient id="a" x2="1" y2="1"><stop stop-color="#4bc7ff"/><stop offset="1" stop-color="#626bff"/></linearGradient><linearGradient id="b" x2="1" y2="1"><stop stop-color="#8b7bff"/><stop offset="1" stop-color="#d977ff"/></linearGradient><filter id="g" x="-50%" y="-50%" width="200%" height="200%"><feGaussianBlur stdDeviation="3"/></filter></defs><g fill="none" stroke-width="3"><g filter="url(#g)" opacity=".7"><path d="M33 16a21 21 0 1 0 9 40L16 66l4-14" stroke="#4c9fff"/><path d="M47 24a21 21 0 1 1-9 40l26 10-4-14" stroke="#bc76ff"/></g><path d="M33 16a21 21 0 1 0 9 40L16 66l4-14" stroke="url(#a)"/><path d="M47 24a21 21 0 1 1-9 40l26 10-4-14" stroke="url(#b)"/></g><g fill="url(#a)"><circle cx="29" cy="31" r="6"/><path d="M19 47q0-11 10-11t10 11Z"/></g><g fill="url(#b)"><circle cx="52" cy="40" r="6"/><path d="M42 56q0-11 10-11t10 11Z"/></g><path d="m42 29 3 9 9 3-9 3-3 9-3-9-9-3 9-3Z" fill="#ecdeff"/><circle cx="63" cy="14" r="2" fill="#c69cff"/></svg>